<?xml version="1.0" encoding="UTF-8" standalone="yes"?><svg xmlns="http://www.w3.org/2000/svg" xmlns:xlink="http://www.w3.org/1999/xlink" height="598px" style="width:507px;height:598px;" version="1.1" viewBox="0 0 507 598" width="507px"><defs><filter height="300%" id="f1" width="300%" x="-1" y="-1"><feGaussianBlur result="blurOut" stdDeviation="2.0"/><feColorMatrix in="blurOut" result="blurOut2" type="matrix" values="0 0 0 0 0 0 0 0 0 0 0 0 0 0 0 0 0 0 .4 0"/><feOffset dx="4.0" dy="4.0" in="blurOut2" result="blurOut3"/><feBlend in="SourceGraphic" in2="blurOut3" mode="normal"/></filter></defs><g><polygon fill="#FFFFFF" filter="url(#f1)" points="82,24.5,163,24.5,170,54.4736,500,54.4736,500,496.5,82,496.5,82,24.5" style="stroke: #000000; stroke-width: 2.0;"/><line style="stroke: #000000; stroke-width: 2.0;" x1="82" x2="170" y1="54.4736" y2="54.4736"/><text fill="#000000" font-family="sans-serif" font-size="14" font-weight="bold" lengthAdjust="spacingAndGlyphs" textLength="75" x="86" y="44.335">管理サーバ</text><polygon fill="#FFFFFF" filter="url(#f1)" points="106,74.5,293,74.5,300,104.4736,303,104.4736,303,472.5,106,472.5,106,74.5" style="stroke: #000000; stroke-width: 2.0;"/><line style="stroke: #000000; stroke-width: 2.0;" x1="106" x2="300" y1="104.4736" y2="104.4736"/><text fill="#000000" font-family="sans-serif" font-size="14" font-weight="bold" lengthAdjust="spacingAndGlyphs" textLength="181" x="110" y="94.335">管理Webアプリケーション</text><ellipse cx="427.5" cy="251" fill="#FEFECE" filter="url(#f1)" rx="8" ry="8" style="stroke: #A80036; stroke-width: 2.0;"/><path d="M427.5,259 L427.5,286 M414.5,267 L440.5,267 M427.5,286 L414.5,301 M427.5,286 L440.5,301 " fill="#FEFECE" filter="url(#f1)" style="stroke: #A80036; stroke-width: 2.0;"/><text fill="#000000" font-family="sans-serif" font-size="14" lengthAdjust="spacingAndGlyphs" textLength="113" x="371" y="325.835">MySqlDBサーバー</text><ellipse cx="204.598" cy="361.4519" fill="#FEFECE" filter="url(#f1)" rx="42.598" ry="19.9519" style="stroke: #A80036; stroke-width: 1.5;"/><text fill="#000000" font-family="sans-serif" font-size="14" lengthAdjust="spacingAndGlyphs" textLength="56" x="176.598" y="369.9387">ログイン</text><ellipse cx="204.4975" cy="436.4519" fill="#FEFECE" filter="url(#f1)" rx="52.4975" ry="19.9519" style="stroke: #A80036; stroke-width: 1.5;"/><text fill="#000000" font-family="sans-serif" font-size="14" lengthAdjust="spacingAndGlyphs" textLength="70" x="169.4975" y="444.9387">ログアウト</text><ellipse cx="204.598" cy="136.4519" fill="#FEFECE" filter="url(#f1)" rx="42.598" ry="19.9519" style="stroke: #A80036; stroke-width: 1.5;"/><text fill="#000000" font-family="sans-serif" font-size="14" lengthAdjust="spacingAndGlyphs" textLength="56" x="176.598" y="144.9387">機器登録</text><ellipse cx="204.598" cy="211.4519" fill="#FEFECE" filter="url(#f1)" rx="42.598" ry="19.9519" style="stroke: #A80036; stroke-width: 1.5;"/><text fill="#000000" font-family="sans-serif" font-size="14" lengthAdjust="spacingAndGlyphs" textLength="56" x="176.598" y="219.9387">機器削除</text><ellipse cx="204.397" cy="286.4519" fill="#FEFECE" filter="url(#f1)" rx="62.397" ry="19.9519" style="stroke: #A80036; stroke-width: 1.5;"/><text fill="#000000" font-family="sans-serif" font-size="14" lengthAdjust="spacingAndGlyphs" textLength="84" x="162.397" y="294.9387">機器一覧取得</text><ellipse cx="34" cy="139" fill="#FEFECE" filter="url(#f1)" rx="8" ry="8" style="stroke: #A80036; stroke-width: 2.0;"/><path d="M34,147 L34,174 M21,155 L47,155 M34,174 L21,189 M34,174 L47,189 " fill="#FEFECE" filter="url(#f1)" style="stroke: #A80036; stroke-width: 2.0;"/><text fill="#000000" font-family="sans-serif" font-size="14" lengthAdjust="spacingAndGlyphs" textLength="56" x="6" y="213.835">外部機器</text><ellipse cx="34" cy="326" fill="#FEFECE" filter="url(#f1)" rx="8" ry="8" style="stroke: #A80036; stroke-width: 2.0;"/><path d="M34,334 L34,361 M21,342 L47,342 M34,361 L21,376 M34,361 L47,376 " fill="#FEFECE" filter="url(#f1)" style="stroke: #A80036; stroke-width: 2.0;"/><text fill="#000000" font-family="sans-serif" font-size="14" lengthAdjust="spacingAndGlyphs" textLength="42" x="13" y="400.835">ユーザ</text><ellipse cx="427.5" cy="523" fill="#FEFECE" filter="url(#f1)" rx="8" ry="8" style="stroke: #A80036; stroke-width: 2.0;"/><path d="M427.5,531 L427.5,558 M414.5,539 L440.5,539 M427.5,558 L414.5,573 M427.5,558 L440.5,573 " fill="#FEFECE" filter="url(#f1)" style="stroke: #A80036; stroke-width: 2.0;"/><text fill="#000000" font-family="sans-serif" font-size="14" lengthAdjust="spacingAndGlyphs" textLength="85" x="385" y="597.835">Authサーバー</text><path d="M244.239,368.861 C265.681,374.455 291.795,383.929 311,399.5 C350.376,431.425 340.644,455.902 371,496.5 C375.326,502.285 380.079,508.1752 384.927,513.9091 " fill="none" style="stroke: #A80036; stroke-width: 1.0;"/><path d="M235.305,452.953 C273.832,474.222 341.136,511.3757 384.743,535.4486 " fill="none" style="stroke: #A80036; stroke-width: 1.0;"/><path d="M242.918,145.308 C263.933,151.285 290.061,160.492 311,173.5 C340.071,191.56 367.665,218.07 388.588,240.875 " fill="none" style="stroke: #A80036; stroke-width: 1.0;"/><path d="M239.547,223.054 C274.539,234.929 329.593,253.613 370.912,267.635 " fill="none" style="stroke: #A80036; stroke-width: 1.0;"/><path d="M239.547,349.946 C274.539,338.071 329.593,319.387 370.912,305.365 " fill="none" style="stroke: #A80036; stroke-width: 1.0;"/><path d="M267.061,286.5 C299.629,286.5 339.305,286.5 370.931,286.5 " fill="none" style="stroke: #A80036; stroke-width: 1.0;"/><path d="M249.262,425.833 C269.026,419.866 292.122,411.228 311,399.5 C340.071,381.44 367.665,354.93 388.588,332.125 " fill="none" style="stroke: #A80036; stroke-width: 1.0;"/><path d="M62.0724,168.395 C90.1673,162.059 134.324,152.101 165.82,144.998 " fill="none" style="stroke: #A80036; stroke-width: 1.0;"/><path d="M62.0724,180.445 C90.0743,186.593 134.032,196.246 165.506,203.157 " fill="none" style="stroke: #A80036; stroke-width: 1.0;"/><path d="M55.325,361.5 C81.5843,361.5 127.943,361.5 161.831,361.5 " fill="none" style="stroke: #A80036; stroke-width: 1.0;"/><path d="M55.3664,338.748 C60.9819,333.486 67.367,328.318 74,324.5 C97.2517,311.117 125.61,302.104 149.856,296.229 " fill="none" style="stroke: #A80036; stroke-width: 1.0;"/><path d="M55.2645,384.913 C60.882,390.316 67.2935,395.612 74,399.5 C99.1852,414.1 130.503,423.25 156.031,428.798 " fill="none" style="stroke: #A80036; stroke-width: 1.0;"/></g></svg>